<?xml version="1.0" encoding="utf-8"?>
<!-- Generator: Adobe Illustrator 17.1.0, SVG Export Plug-In . SVG Version: 6.00 Build 0)  -->
<!DOCTYPE svg PUBLIC "-//W3C//DTD SVG 1.1//EN" "http://www.w3.org/Graphics/SVG/1.1/DTD/svg11.dtd">
<svg version="1.1" id="Layer_1" xmlns="http://www.w3.org/2000/svg" xmlns:xlink="http://www.w3.org/1999/xlink" x="0px" y="0px"
	 viewBox="0 0 32 32" enable-background="new 0 0 32 32" xml:space="preserve">
<g>
	<path fill="#8F301D" d="M15.3,2.6c0.3-0.2,0.6-0.7,0.6-1.2c0-0.8-0.5-1.4-1-1.4H7.5c-0.6,0-1,0.6-1,1.4c0,0.5,0.2,1,0.6,1.2
		C5.5,4.8,3.9,8.2,3.8,8.4L3.8,8.6v0.2v19.5c0,2,1.6,3.7,3.7,3.7H15c2,0,3.7-1.6,3.7-3.7V8.9V8.6l-0.1-0.2
		C18.5,8.2,16.9,4.8,15.3,2.6z M11.1,8.9c-2.6,1.9-6.3,0-6.3,0s1.9-4.2,3.5-6.1H14c1.6,1.9,3.5,6.1,3.5,6.1S13.7,6.9,11.1,8.9z"/>
	<path fill="#8F301D" d="M19.1,19.7l0.9,12h7.4l0.9-12H19.1z M23.7,23.1c-1.1,0.7-3.8,0-3.8,0l-0.2-2.7h7.8l-0.2,2.8
		C27.3,23.1,24.8,22.3,23.7,23.1z"/>
</g>
</svg>
