<?xml version="1.0" encoding="utf-8"?>
<!-- Generator: Adobe Illustrator 17.1.0, SVG Export Plug-In . SVG Version: 6.00 Build 0)  -->
<!DOCTYPE svg PUBLIC "-//W3C//DTD SVG 1.1//EN" "http://www.w3.org/Graphics/SVG/1.1/DTD/svg11.dtd">
<svg version="1.1" id="Layer_1" xmlns="http://www.w3.org/2000/svg" xmlns:xlink="http://www.w3.org/1999/xlink" x="0px" y="0px"
	 viewBox="0 0 32 32" enable-background="new 0 0 32 32" xml:space="preserve">
<g>
	<path fill="#8F301D" d="M12.6,10.6c-1.6-1.1-5.1-3-5.1-3s0,0,0,4.1s6.9,5.6,6.9,5.6C14.4,15.4,14.3,11.7,12.6,10.6z"/>
	<path fill="#8F301D" d="M12.6,18c-1.6-1.1-5.1-3-5.1-3s0,0,0,4.1c0,4.1,6.9,5.6,6.9,5.6C14.4,22.7,14.3,19,12.6,18z"/>
	<path fill="#8F301D" d="M14.5,32c-0.1-1.9-0.3-5.6-1.9-6.7c-1.6-1.1-5-3-5-3s0,0,0,4.1C7.6,30.5,14.5,32,14.5,32z"/>
	<path fill="#8F301D" d="M17.1,17.3c0,0,7.3-1.5,7.3-5.6s0-4.1,0-4.1s-4.1,1.9-5.7,3C17.1,11.7,17.3,15.4,17.1,17.3z"/>
	<path fill="#8F301D" d="M17.1,24.6c0,0,7.3-1.5,7.3-5.6c0-4.1,0-4.1,0-4.1s-4.1,1.9-5.7,3C17.1,19,17.3,22.7,17.1,24.6z"/>
	<path fill="#8F301D" d="M24.4,26.4c0-4.1,0-4.1,0-4.1s-4.1,1.9-5.7,3c-1.6,1.1-1.4,4.8-1.6,6.7C17.1,32,24.4,30.5,24.4,26.4z"/>
	<path fill="#8F301D" d="M18.3,6.6c0-1.9-0.5-4.2-2.6-6.6c0,0-2.5,3.1-2.5,6.2c0,2,1.1,3.7,2.5,5.4C15.7,11.6,18.3,8.5,18.3,6.6z"/>
</g>
</svg>
