<?xml version="1.0" encoding="utf-8"?>
<!-- Generator: Adobe Illustrator 17.1.0, SVG Export Plug-In . SVG Version: 6.00 Build 0)  -->
<!DOCTYPE svg PUBLIC "-//W3C//DTD SVG 1.1//EN" "http://www.w3.org/Graphics/SVG/1.1/DTD/svg11.dtd">
<svg version="1.1" id="Layer_1" xmlns="http://www.w3.org/2000/svg" xmlns:xlink="http://www.w3.org/1999/xlink" x="0px" y="0px"
	 viewBox="0 0 32 32" enable-background="new 0 0 32 32" xml:space="preserve">
<g>
	<path fill="#8F301D" d="M14.7,14.7c-4.6,4.7-7.8,5.2-7.8,5.2C13.7,27,21.8,30.5,26,28.4c0,0.1,0.1,0.2,0.2,0.2
		c0.4,0.4,1,0.3,1.4-0.2c0.4-0.4,0.5-1.1,0.2-1.4c0,0,0,0,0,0c3-4-0.3-13.1-7.7-20.7C20.1,6.3,19.3,10,14.7,14.7z M22.9,14.9
		c0.4-0.2,0.9-0.1,1.2,0.3c4,6.6,2.7,10.7,2.6,10.8c-0.2,0.4-0.6,0.7-1.1,0.5c-0.1,0-0.2-0.1-0.3-0.2c-0.2-0.2-0.3-0.6-0.2-0.9
		c0,0,1.1-3.6-2.4-9.4C22.4,15.7,22.5,15.1,22.9,14.9z"/>
	<path fill="#8F301D" d="M5.1,19.5c0,0,11.3-4.4,14.2-14.9c-2.1-2.7-7.7-1.9-11.6,1.5C7.6,6.1,7.5,6,7.5,5.9C7.2,5.6,6,4.9,5.6,4.7
		C5.3,4.5,4.9,4.2,4.5,4.2C4,4.2,3.6,4.4,3.2,4.8c0,0,0,0.1,0,0.2c0.3,0.5,0.6,0.7,0.9,0.9C4.4,6,4.8,5.9,5.1,6C5.5,6,6.6,6.5,7,6.6
		c0,0,0,0,0.1,0C7,6.7,6.9,6.8,6.9,6.8C2.9,10.8,2.2,16.7,5.1,19.5z"/>
</g>
</svg>
