<?xml version="1.0" encoding="utf-8"?>
<!-- Generator: Adobe Illustrator 17.1.0, SVG Export Plug-In . SVG Version: 6.00 Build 0)  -->
<!DOCTYPE svg PUBLIC "-//W3C//DTD SVG 1.1//EN" "http://www.w3.org/Graphics/SVG/1.1/DTD/svg11.dtd">
<svg version="1.1" id="Layer_1" xmlns="http://www.w3.org/2000/svg" xmlns:xlink="http://www.w3.org/1999/xlink" x="0px" y="0px"
	 viewBox="0 0 32 32" enable-background="new 0 0 32 32" xml:space="preserve">
<path fill="#8F301D" d="M9.1,5.5c0.3-0.4,0.8-0.6,1.2-0.4c0,0,1.5,0.8,4.1,0.7c0.6,0,1.1-0.1,1.7-0.2c0.9-0.1,1.8-0.3,2.8-0.2
	C11.6-0.3,5.2-1.2,1.9,2c-3.8,3.8-1.3,12.6,7.1,21.1c8.4,8.4,17.2,11,21.1,7.1c2.5-2.5,3-6.5-0.2-12.2c-1.1-0.2-2-0.1-3,0
	c-0.6,0.1-1.2,0.2-1.9,0.2c-3.1,0.1-4.8-0.9-4.9-0.9c-0.1,0-0.1-0.1-0.2-0.1c-0.3-0.3-0.3-0.7-0.1-1.1c0.3-0.4,0.8-0.6,1.2-0.4
	c0,0,1.5,0.8,4.1,0.7c0.6,0,1.1-0.1,1.7-0.2c0.6-0.1,1.3-0.2,2-0.2c-0.6-0.9-1.2-1.8-1.9-2.7c-2.5-1.4-3.9-1.2-5.5-1
	c-0.6,0.1-1.2,0.2-1.9,0.2c-3,0.1-4.8-0.9-4.9-0.9c-0.1,0-0.1-0.1-0.2-0.1c-0.3-0.3-0.3-0.7-0.1-1.1c0.3-0.4,0.8-0.6,1.2-0.4
	c0,0,1.5,0.8,4.1,0.7c0.6,0,1.1-0.1,1.7-0.2c1-0.1,2-0.3,3.2-0.1c-0.4-0.5-0.9-1-1.4-1.4c-3.3-2.3-5-2.1-6.9-1.8
	c-0.6,0.1-1.2,0.2-1.9,0.2c-3,0.1-4.8-0.8-4.9-0.9c-0.1,0-0.1-0.1-0.2-0.1C9,6.3,8.9,5.9,9.1,5.5z"/>
</svg>
