<?xml version="1.0" encoding="utf-8"?>
<!-- Generator: Adobe Illustrator 17.1.0, SVG Export Plug-In . SVG Version: 6.00 Build 0)  -->
<!DOCTYPE svg PUBLIC "-//W3C//DTD SVG 1.1//EN" "http://www.w3.org/Graphics/SVG/1.1/DTD/svg11.dtd">
<svg version="1.1" id="Layer_1" xmlns="http://www.w3.org/2000/svg" xmlns:xlink="http://www.w3.org/1999/xlink" x="0px" y="0px"
	 viewBox="0 0 32 32" enable-background="new 0 0 32 32" xml:space="preserve">
<g>
	<path fill="#8F301D" d="M7.2,26.9c1.3,1.5,2.9,2.9,4.9,3.1c1.4,0.2,3.1-0.7,4.2-0.7c2.3,0,1.8,0.5,4.2,0.5c2.4,0,7-5.6,8-11.6
		c0.2-1.5,0-4-1.1-6.4c-1.4-2.9-5.3-3.9-7.7-3.5c-0.6,0.1-2.1,0.4-3.1,0.6c0.2-0.8,0.8-2.1,2.1-2.8c0.4-0.2,0.6-0.7,0.3-1.1
		c-0.2-0.4-0.7-0.6-1.1-0.3c-2.2,1.2-2.9,3.5-3.1,4.4c-1.1-0.2-3.6-0.7-4.8-0.6c-1.4,0-2.8,0.5-4,1.4c-1.1,0.9-1.7,2-2.1,3.3
		c-0.6,1.8-0.9,3.7-0.6,5.5C3.8,21.8,5.1,24.5,7.2,26.9z M12,12.2c1.3,0,2.2,0.9,2.2,2c0,1.5-1,2.7-2.3,2.7c-1,0-1.7-1.1-1.7-2.6
		C10.3,13,10.9,12.1,12,12.2z"/>
	<path fill="#8F301D" d="M13.5,6.7c0.9,0.1,1.9,0.1,2.3-0.7C16.3,5,15.6,4.2,15,3.5c-1.5-1.6-3.8-1.9-6.2-0.8c0.3,0.5,0.6,1,0.9,1.5
		C10.5,5.7,11.8,6.5,13.5,6.7z"/>
</g>
</svg>
