<?xml version="1.0" encoding="utf-8"?>
<!-- Generator: Adobe Illustrator 17.1.0, SVG Export Plug-In . SVG Version: 6.00 Build 0)  -->
<!DOCTYPE svg PUBLIC "-//W3C//DTD SVG 1.1//EN" "http://www.w3.org/Graphics/SVG/1.1/DTD/svg11.dtd">
<svg version="1.1" id="Layer_1" xmlns="http://www.w3.org/2000/svg" xmlns:xlink="http://www.w3.org/1999/xlink" x="0px" y="0px"
	 viewBox="0 0 32 32" enable-background="new 0 0 32 32" xml:space="preserve">
<path fill="#8F301D" d="M18.7,12.1c0-1.7,0-4.8,0-4.8h0.6V6.7h-0.6v-2L17,3.8h0V0L15,2.1v1.7l-1.7,0.8v2h-0.6v0.6h0.6
	c0,0,0,3.3,0,4.8s-3.7,2.8-3.7,4.4V31c0,0.6,0.5,1,1,1h10.8c0.6,0,1-0.5,1-1V16.5C22.4,14.9,18.7,13.8,18.7,12.1z M17.9,11.9h-3.7
	V7.2h3.7V11.9z"/>
</svg>
