<?xml version="1.0" encoding="utf-8"?>
<!-- Generator: Adobe Illustrator 17.1.0, SVG Export Plug-In . SVG Version: 6.00 Build 0)  -->
<!DOCTYPE svg PUBLIC "-//W3C//DTD SVG 1.1//EN" "http://www.w3.org/Graphics/SVG/1.1/DTD/svg11.dtd">
<svg version="1.1" id="Layer_1" xmlns="http://www.w3.org/2000/svg" xmlns:xlink="http://www.w3.org/1999/xlink" x="0px" y="0px"
	 viewBox="0 0 32 32" enable-background="new 0 0 32 32" xml:space="preserve">
<g>
	<path fill="#8F301D" d="M22.6,14.5l-8.8-14c-0.4-0.7-1-0.7-1.6-0.1L3,8.5c-0.6,0.5-0.5,1.2,0,1.6l12.7,10.6l0,0
		c0.8,0.6,1.4,0.5,2,0l4.9-4.5C23.1,15.8,23.1,15.3,22.6,14.5z"/>
	<path fill="#8F301D" d="M23.5,16.8l-5.4,5C20.8,23.8,25.5,19.9,23.5,16.8z M20.8,22c-0.2,0-0.4-0.2-0.4-0.4c0-0.2,0.2-0.4,0.4-0.4
		c0.2,0,0.4,0.2,0.4,0.4C21.1,21.9,21,22,20.8,22z M22.3,21c-0.2,0-0.4-0.2-0.4-0.4c0-0.2,0.2-0.4,0.4-0.4s0.4,0.2,0.4,0.4
		C22.7,20.8,22.5,21,22.3,21z M23.4,19.4c-0.2,0-0.4-0.2-0.4-0.4c0-0.2,0.2-0.4,0.4-0.4c0.2,0,0.4,0.2,0.4,0.4
		C23.7,19.3,23.6,19.4,23.4,19.4z"/>
	<circle fill="#8F301D" cx="25" cy="22.6" r="0.8"/>
	<circle fill="#8F301D" cx="23.9" cy="25.8" r="0.8"/>
	<circle fill="#8F301D" cx="26.1" cy="26.9" r="0.8"/>
	<circle fill="#8F301D" cx="25.7" cy="29.6" r="0.8"/>
	<circle fill="#8F301D" cx="28.6" cy="31.2" r="0.8"/>
</g>
</svg>
