<?xml version="1.0" encoding="utf-8"?>
<!-- Generator: Adobe Illustrator 17.1.0, SVG Export Plug-In . SVG Version: 6.00 Build 0)  -->
<!DOCTYPE svg PUBLIC "-//W3C//DTD SVG 1.1//EN" "http://www.w3.org/Graphics/SVG/1.1/DTD/svg11.dtd">
<svg version="1.1" id="Layer_1" xmlns="http://www.w3.org/2000/svg" xmlns:xlink="http://www.w3.org/1999/xlink" x="0px" y="0px"
	 viewBox="0 0 32 32" enable-background="new 0 0 32 32" xml:space="preserve">
<path fill="#8F301D" d="M13.6,27.2c0,0.2,0,0.4,0,0.5C13.6,29,14.7,30,16,30c1.2,0,2.3-0.9,2.4-2.1c0.1-0.2,0.1-0.4,0.1-0.6
	c0-0.7,0.2-0.9,0.9-1c4.7-1,8.2-4.7,8.9-9.3c0.1-0.5,0.1-1.1,0.3-1.5c0.4-0.4,1.1-0.6,1.3-1.1c0.2-0.3-0.2-0.9-0.4-1.5
	c0.8-0.8,0.8-1.2-0.2-2.1c1-0.9,0.9-1.4-0.1-2.3c0.6-0.3,1-0.8,0.7-1.4c-0.2-0.4-0.8-0.7-1.1-1c-0.1,0.1-0.1,0.1-0.1,0.2
	c-0.1-0.4-0.1-0.8-0.3-1.1c-0.3-0.4-0.7-0.7-1.1-0.9c-0.2-0.1-0.7,0.4-0.9,0.7c-0.5,1-0.8,2-1.2,3c-0.5,1-1,1.9-1.6,2.8
	c-1.9,2.4-4.5,3.2-7.5,2.5c-2.9-0.6-4.9-2.4-5.7-5.3c-0.1-0.5-0.2-1.1-0.3-1.6c0.7-0.4,1.5-0.7,1.2-1.6C11,4.2,10.4,3.9,9.7,3.4
	c0-0.3,0.1-1.1-0.7-1.4C8.4,1.8,7.9,2.2,7.5,2.9c-0.5-0.5-1-1.2-1.7-0.7c-0.4,0.3-0.6,1-1,1.6c-0.5,0-1.3-0.1-1.4,0.9
	C3.3,5.3,3.8,5.8,5.1,6.2C4.3,7.1,3,7.1,2,7.8C2.8,8.2,3.5,8.7,4.3,9C4.7,9.3,4.8,9.5,4.8,10c-0.1,1.6-0.2,3.1-0.3,4.7
	c-0.6,6.6,3.9,10.3,8.2,11.4C13.3,26.2,13.6,26.5,13.6,27.2z M6.9,7.8c-0.2,0-0.5-0.3-1-0.6c0.5-0.3,0.7-0.6,1-0.6
	c0.2,0,0.6,0.4,0.6,0.5C7.4,7.4,7.1,7.7,6.9,7.8z"/>
</svg>
