<?xml version="1.0" encoding="utf-8"?>
<!-- Generator: Adobe Illustrator 17.1.0, SVG Export Plug-In . SVG Version: 6.00 Build 0)  -->
<!DOCTYPE svg PUBLIC "-//W3C//DTD SVG 1.1//EN" "http://www.w3.org/Graphics/SVG/1.1/DTD/svg11.dtd">
<svg version="1.1" id="Layer_1" xmlns="http://www.w3.org/2000/svg" xmlns:xlink="http://www.w3.org/1999/xlink" x="0px" y="0px"
	 viewBox="0 0 32 32" enable-background="new 0 0 32 32" xml:space="preserve">
<g>
	<path fill="#8F301D" d="M23.7,5.5v1.3v0.7l0.6,0.4c1.6,1,2.4,2.5,2.4,4.6v12.2c0,2.1-0.7,3.5-2,4.5c-1.5,1.1-3.8,1.6-6.8,1.6h-3.5
		c-3.1,0-5.4-0.5-6.8-1.6c-1.4-1-2-2.5-2-4.5V12.4c0-2.2,0.7-3.8,2.3-4.7l0.6-0.4V6.7V5.5H23.7 M24.9,4.3H7v2.4
		c-1.9,1.2-2.8,3.1-2.8,5.8v12.2c0,4.9,3.4,7.4,10.1,7.4h3.5c6.7,0,10.1-2.5,10.1-7.4V12.4c0-2.5-1-4.4-3-5.7V4.3L24.9,4.3z"/>
	<path fill="#8F301D" d="M6.5,2.3V0.9C6.5,0.4,7,0,7.5,0h17.1c0.5,0,0.9,0.4,0.9,0.9v1.3c0,0.5-0.4,0.9-0.9,0.9H7.5
		C7,3.2,6.5,2.8,6.5,2.3z"/>
	<path fill="#8F301D" d="M16.6,12.3c-3.5,0-6.9,0.4-10,1.2v10.4c0,3.6,2.5,5.3,7.8,5.3h3.1c5.2,0,7.8-1.7,7.8-5.3V13.2
		C22.6,12.6,19.7,12.3,16.6,12.3z"/>
</g>
</svg>
