<?xml version="1.0" encoding="utf-8"?>
<!-- Generator: Adobe Illustrator 17.1.0, SVG Export Plug-In . SVG Version: 6.00 Build 0)  -->
<!DOCTYPE svg PUBLIC "-//W3C//DTD SVG 1.1//EN" "http://www.w3.org/Graphics/SVG/1.1/DTD/svg11.dtd">
<svg version="1.1" id="Layer_1" xmlns="http://www.w3.org/2000/svg" xmlns:xlink="http://www.w3.org/1999/xlink" x="0px" y="0px"
	 viewBox="0 0 32 32" enable-background="new 0 0 32 32" xml:space="preserve">
<g>
	<g>
		<path fill="#8F301D" d="M9.7,9.6L9.7,9.6l0.1-6.1c0-0.3-0.3-0.6-0.7-0.6c-0.3,0-0.7,0.3-0.7,0.6v6.1v0.8v1.3c0,1.6,1,2.9,2.7,3.3
			v3h1.7v-3c1.4-0.4,2.7-1.7,2.7-3.3v-1.3v0V3.4c0-0.3-0.3-0.6-0.7-0.6c-0.3,0-0.7,0.3-0.7,0.6v6.1c0,0.2-0.1,0.4-0.3,0.4
			c-0.2,0-0.3-0.2-0.3-0.4V3.4c0-0.3-0.2-0.6-0.5-0.6c-0.3,0-0.5,0.3-0.5,0.6v6.1v0c0,0.2-0.3,0.4-0.5,0.4c-0.2,0-0.5-0.2-0.5-0.4
			V3.4c0-0.3-0.2-0.6-0.5-0.6c-0.3,0-0.5,0.3-0.5,0.6v6h-0.1c0,0.3-0.1,0.4-0.3,0.4C9.8,9.9,9.7,9.8,9.7,9.6z"/>
		<path fill="#8F301D" d="M13.8,30.2V20c0-0.7-0.4-1.4-1-1.7H11c-0.5,0.3-1,1-1,1.7v10.2c0,1,0.9,1.8,1.9,1.8S13.8,31.2,13.8,30.2z"
			/>
	</g>
	<g>
		<path fill="#8F301D" d="M21.9,32c1,0,1.7-0.8,1.7-1.8V19.4c0-0.7-0.2-1.4-0.8-1.8H21c-0.6,0.3-0.8,1.1-0.8,1.8v10.8
			C20.2,31.2,20.9,32,21.9,32z"/>
		<path fill="#8F301D" d="M20.9,17.3h2l0,0v-3.2V0.4c0,0-0.8-1.4-1.7,0.7c-1.3,3.1-1.6,5.6-1.9,8c-0.1,0.8-0.9,3.6,0.7,5.3
			c0.6,0.6,0.9,1.3,0.9,1.8L20.9,17.3L20.9,17.3z"/>
	</g>
</g>
</svg>
