<?xml version="1.0" encoding="utf-8"?>
<!-- Generator: Adobe Illustrator 17.1.0, SVG Export Plug-In . SVG Version: 6.00 Build 0)  -->
<!DOCTYPE svg PUBLIC "-//W3C//DTD SVG 1.1//EN" "http://www.w3.org/Graphics/SVG/1.1/DTD/svg11.dtd">
<svg version="1.1" id="Layer_1" xmlns="http://www.w3.org/2000/svg" xmlns:xlink="http://www.w3.org/1999/xlink" x="0px" y="0px"
	 viewBox="0 0 32 32" enable-background="new 0 0 32 32" xml:space="preserve">
<g>
	<path fill="#8F301D" d="M26.1,17.1c-0.3-2-2.5-3.7-5.5-4.5V8.4l0,0V0.5H7.8v2.7c0.5,0.1,1,0.2,1.4,0.5C9.6,3.9,9.8,4.1,10,4.3
		c0.6,0.7,0.6,2.3,0.6,3.1s0,2.5,0,2.5s1.3-1.3,1.3-4.4c0,0,0,0,0,0c0.7,0.7,1.4,1.4,1.8,2.4h0v4.7c-3.1,0.7-5.6,2.5-5.9,4.6h0V32
		h18.2L26.1,17.1L26.1,17.1z M24.3,30.3H9.5V17.2c0.2-1.1,1.8-2.4,4.6-3.1l1.3-0.3v-1.4v-3h1c0.3,1.4,0.6,3.2,0.6,4.9v7.3
		c-2.6,0.1-4.8,0.9-6.1,1.9c-0.2,0.2-0.4,0.4-0.5,0.5v2.6v2.6h12.9v-1v-4.6v-1c-1.4-0.6-3.3-0.9-5.3-0.9c-0.1,0-0.2,0-0.3,0v-7.3
		c0-1.7-0.3-3.5-0.6-4.9h1.7v3.1v1.3l1.3,0.3c2.2,0.6,4,1.9,4.2,3V30.3z"/>
	<polygon fill="#8F301D" points="6.4,0 5.9,0 5.9,3.7 6.4,3.7 6.4,3.2 7.3,3.2 7.3,0.5 6.4,0.5 	"/>
</g>
</svg>
