<?xml version="1.0" encoding="utf-8"?>
<!-- Generator: Adobe Illustrator 17.1.0, SVG Export Plug-In . SVG Version: 6.00 Build 0)  -->
<!DOCTYPE svg PUBLIC "-//W3C//DTD SVG 1.1//EN" "http://www.w3.org/Graphics/SVG/1.1/DTD/svg11.dtd">
<svg version="1.1" id="Layer_1" xmlns="http://www.w3.org/2000/svg" xmlns:xlink="http://www.w3.org/1999/xlink" x="0px" y="0px"
	 viewBox="0 0 32 32" enable-background="new 0 0 32 32" xml:space="preserve">
<g>
	<path fill="#8F301D" d="M28.8,3.3c-0.7-0.7-3,0.5-8,7c0,0,0.3-2.6,0.6-3.4c0.3-0.8,1.3-4.9-1.1-6.4C17.9-1,18.3,1,19,3.4
		c0.7,2.4,1,5,0.3,7.5c0,0-3.6-2.6-5.5-0.9c-0.6,0.6-0.9,0.9-2.8,3.4l-0.4,0.5c-0.2,0.3-0.4,0.6-0.7,0.9c0.1,0,0.1,0.1,0.1,0.1
		l3.4,3.4c0.3,0.3,0.4,0.7,0.1,0.9c-0.2,0.2-0.6,0.2-0.9-0.1l-3.4-3.4c0,0,0,0,0,0c-0.3,0.4-0.7,0.9-1,1.4c0,0-3.6,5.2-5.5,9.3
		c0,0,0,0.1,0,0.1c0,0.1-0.1,0.2-0.1,0.3c-0.1,0.3-0.2,0.5-0.3,0.7c-0.1,0.2-0.1,0.3-0.2,0.5C2,28,2,28,2,28.1
		c0,0.1-0.1,0.2-0.1,0.3c0,0,0,0,0,0c-0.3,0.8-0.6,1.5-0.7,2.3c0,0-0.2,0.8,0.8,1.3c0.6,0.3,4.6-1,10.1-4.9l-2.6-2.6
		c-0.3-0.3-0.4-0.7-0.1-0.9c0.2-0.2,0.6-0.2,0.9,0.1l2.7,2.7c0.4-0.3,0.8-0.6,1.2-0.9l0.6-0.5c1.8-1.4,3.9-3.1,6.6-5.8l-2.2-2.2
		c-0.3-0.3-0.4-0.7-0.1-0.9c0.2-0.2,0.6-0.2,0.9,0.1l2.1,2.1l0.3-0.3c0.7-0.7-0.7,0.7,0-0.1c0,0,2-1.7-1.3-5.2c0,0,2.7-3.7,6.1,0.1
		c2.5,2.8,5,0.6,3.1-1.3c-1.9-1.9-4.5-3.5-8.8-0.7c0,0,3.2-2.5,5.9-4.3C30,5,29.5,4,28.8,3.3z"/>
</g>
</svg>
